<svg xmlns="http://www.w3.org/2000/svg" width="23.041" height="24.088" viewBox="0 0 23.041 24.088">
  <path id="Path_14719" data-name="Path 14719" d="M9.189,4V5.047H5V28.088H28.041V5.047H23.851V4H21.757V5.047H11.284V4ZM7.095,7.142H9.189V8.189h2.095V7.142H21.757V8.189h2.095V7.142h2.095V9.236H7.095Zm0,4.189H25.946V25.993H7.095Zm6.284,2.095V15.52h2.095V13.426Zm4.189,0V15.52h2.095V13.426Zm4.189,0V15.52h2.095V13.426ZM9.189,17.615v2.095h2.095V17.615Zm4.189,0v2.095h2.095V17.615Zm4.189,0v2.095h2.095V17.615Zm4.189,0v2.095h2.095V17.615ZM9.189,21.8V23.9H23.851V21.8Z" transform="translate(-5 -4)" fill="#005daa"/>
</svg>
