<svg xmlns="http://www.w3.org/2000/svg" width="8.999" height="15.27" viewBox="0 0 8.999 15.27">
  <path id="smartphone-iphone" d="M7.277.375A1.635,1.635,0,0,1,8.5.895,1.712,1.712,0,0,1,9,2.129V13.89a1.714,1.714,0,0,1-.5,1.235,1.634,1.634,0,0,1-1.218.52H1.722A1.635,1.635,0,0,1,.5,15.124,1.712,1.712,0,0,1,0,13.89V2.129A1.714,1.714,0,0,1,.5.895,1.634,1.634,0,0,1,1.722.375ZM4.5,14.929a1.047,1.047,0,0,0,.747-.292.965.965,0,0,0,.309-.731A1.054,1.054,0,0,0,4.5,12.85a.964.964,0,0,0-.731.309,1.046,1.046,0,0,0-.292.747A1,1,0,0,0,4.5,14.929Zm3.135-2.761V2.454H1.4v9.714H7.635Z" transform="translate(0 -0.375)" fill="#424242"/>
</svg>
