<svg xmlns="http://www.w3.org/2000/svg" width="18.013" height="12.605" viewBox="0 0 18.013 12.605">
  <path id="Path_14724" data-name="Path 14724" d="M5.4,38.3a3.152,3.152,0,1,0-3.152-3.152A3.152,3.152,0,0,0,5.4,38.3Zm2.161.9H7.332a4.352,4.352,0,0,1-3.852,0H3.242A3.243,3.243,0,0,0,0,42.446v.809a1.351,1.351,0,0,0,1.351,1.351H9.456a1.351,1.351,0,0,0,1.351-1.351v-.808A3.243,3.243,0,0,0,7.566,39.2Zm5.944-.9a2.7,2.7,0,1,0-2.7-2.7,2.7,2.7,0,0,0,2.7,2.7Zm1.351.9h-.107a3.55,3.55,0,0,1-2.488,0h-.1a3.126,3.126,0,0,0-1.567.434,4.118,4.118,0,0,1,1.114,2.808v1.081c0,.062-.014.121-.017.18h4.97a1.351,1.351,0,0,0,1.351-1.351A3.151,3.151,0,0,0,14.859,39.2Z" transform="translate(0 -32)" fill="#b4b4b4"/>
</svg>
