<svg xmlns="http://www.w3.org/2000/svg" width="36" height="36" viewBox="0 0 36 36">
  <g id="Group_19154" data-name="Group 19154" transform="translate(-445 -389)">
    <g id="Path_14664" data-name="Path 14664" transform="translate(445 389)" fill="#fff">
      <path d="M 18 35 C 13.45913982391357 35 9.190059661865234 33.231689453125 5.979189872741699 30.02080917358398 C 2.768310070037842 26.80994033813477 1 22.54085922241211 1 18 C 1 13.45913982391357 2.768310070037842 9.190059661865234 5.979189872741699 5.979189872741699 C 9.190059661865234 2.768310070037842 13.45913982391357 1 18 1 C 22.54085922241211 1 26.80994033813477 2.768310070037842 30.02080917358398 5.979189872741699 C 33.231689453125 9.190059661865234 35 13.45913982391357 35 18 C 35 22.54085922241211 33.231689453125 26.80994033813477 30.02080917358398 30.02080917358398 C 26.80994033813477 33.231689453125 22.54085922241211 35 18 35 Z" stroke="none"/>
      <path d="M 18 2 C 13.72624969482422 2 9.70829963684082 3.664291381835938 6.686290740966797 6.686290740966797 C 3.664291381835938 9.70829963684082 2 13.72624969482422 2 18 C 2 22.27375030517578 3.664291381835938 26.29170036315918 6.686290740966797 29.3137092590332 C 9.70829963684082 32.33570861816406 13.72624969482422 34 18 34 C 22.27375030517578 34 26.29170036315918 32.33570861816406 29.3137092590332 29.3137092590332 C 32.33570861816406 26.29170036315918 34 22.27375030517578 34 18 C 34 13.72624969482422 32.33570861816406 9.70829963684082 29.3137092590332 6.686290740966797 C 26.29170036315918 3.664291381835938 22.27375030517578 2 18 2 M 18 0 C 27.94112014770508 0 36 8.058879852294922 36 18 C 36 27.94112014770508 27.94112014770508 36 18 36 C 8.058879852294922 36 0 27.94112014770508 0 18 C 0 8.058879852294922 8.058879852294922 0 18 0 Z" stroke="none" fill="#6d6d6d"/>
    </g>
    <path id="Icon_ionic-ios-arrow-back" data-name="Icon ionic-ios-arrow-back" d="M17.535,14.059,11.581,8.11a1.125,1.125,0,1,1,1.593-1.588l6.745,6.741a1.122,1.122,0,0,1,.033,1.551L13.178,21.6a1.125,1.125,0,0,1-1.593-1.588Z" transform="translate(447.253 392.942)" fill="#6d6d6d"/>
  </g>
</svg>
