<svg xmlns="http://www.w3.org/2000/svg" width="598.53" height="206" viewBox="0 0 598.53 206">
  <g id="Group_19210" data-name="Group 19210" transform="translate(-165.999 -395.719)">
    <g id="VNSNY-125-logo" transform="translate(166 395.709)">
      <path id="Path_30" data-name="Path 30" d="M25,73.531l-9.4,7.229-.937-2.571L18.7,75.264c1.136-.81,2.23-1.577,3.466-2.315h0c-1.42.185-2.741.312-4.091.383l-4.985.27L12,70.96l11.945-.17Z" transform="translate(-9.713 13.133)" fill="#fff"/>
      <rect id="Rectangle_1" data-name="Rectangle 1" width="11.277" height="2.557" transform="matrix(0.985, -0.172, 0.172, 0.985, 0.982, 76.623)" fill="#fff"/>
      <path id="Path_31" data-name="Path 31" d="M19.267,63.328a6.505,6.505,0,0,0,.682-2.841c0-1.165-.5-1.775-1.236-1.775s-1.094.554-1.577,1.9c-.639,1.875-1.662,3.111-3.324,3.125-1.932,0-3.324-1.662-3.423-4.261a6.917,6.917,0,0,1,.554-2.841L13,57.193a5.355,5.355,0,0,0-.511,2.358c0,1.094.511,1.662,1.094,1.662s1.037-.653,1.577-2.1c.71-2,1.747-2.94,3.324-2.94,1.9,0,3.522,1.42,3.537,4.531a7.357,7.357,0,0,1-.682,3.2Z" transform="translate(-10.39 6.988)" fill="#fff"/>
      <rect id="Rectangle_2" data-name="Rectangle 2" width="2.557" height="11.277" transform="translate(0.816 57.69) rotate(-81.2)" fill="#fff"/>
      <path id="Path_32" data-name="Path 32" d="M4.354,35.932l-.909,2.9L1.4,38.176,4,29.91l2.045.653L5.121,33.5l8.721,2.755-.781,2.429Z" transform="translate(0.589 12.568)" fill="#fff"/>
      <rect id="Rectangle_3" data-name="Rectangle 3" width="2.557" height="11.277" transform="translate(6.286 38.829) rotate(-64.23)" fill="#fff"/>
      <path id="Path_33" data-name="Path 33" d="M26.878,42.191,17.83,35.529l1.747-2.415,4.7.582a32.668,32.668,0,0,1,4.261.838h0a42.027,42.027,0,0,1-3.906-2.684L22.006,29.9l1.42-1.875,9.048,6.661-1.761,2.145-4.985-.668a41.8,41.8,0,0,1-4.36-.8h0c1.236.838,2.528,1.747,4.005,2.841L28.1,40.245Z" transform="translate(-7.262 -4.84)" fill="#fff"/>
      <path id="Path_34" data-name="Path 34" d="M38.51,28.583A12.613,12.613,0,0,1,36,31.424a6.292,6.292,0,0,1-4.488,1.761,5.454,5.454,0,0,1-3.835-2.159c-2.372-2.841-1.662-6.292,1.193-8.65A7.769,7.769,0,0,1,31.578,20.8l.895,1.917a6.249,6.249,0,0,0-2.329,1.293,3.409,3.409,0,0,0-.554,5.184,3.324,3.324,0,0,0,5.085.582,3.423,3.423,0,0,0,.866-.937l-1.435-1.79-1.335,1.108-1.264-1.534,3.224-2.7Z" transform="translate(-3.725 -7.879)" fill="#fff"/>
      <path id="Path_35" data-name="Path 35" d="M41.972,27.3,38.18,16.675l2.841-.994,3.593,3.1A32.767,32.767,0,0,1,47.682,21.8h0a41.956,41.956,0,0,1-1.79-4.375l-1.094-3.1,2.216-.781,3.693,10.581-2.5.838-3.75-3.324a41.825,41.825,0,0,1-3.182-3.1h0c.568,1.42,1.136,2.841,1.747,4.588l1.15,3.2Z" transform="translate(1.291 -10.927)" fill="#fff"/>
      <path id="Path_36" data-name="Path 36" d="M51.357,12.449,52.1,18.9c.213,1.932,1.065,2.841,2.358,2.684s1.96-1.165,1.662-3.139l-.739-6.448L57.9,11.71,58.614,18c.4,3.466-1.165,5.312-4.091,5.681s-4.659-1.051-4.985-4.63L48.8,12.832Z" transform="translate(5.755 -11.7)" fill="#fff"/>
      <path id="Path_37" data-name="Path 37" d="M60.158,11.892a22.413,22.413,0,0,1,3.324.156A5.752,5.752,0,0,1,67,13.327a2.841,2.841,0,0,1,.767,2.457,3,3,0,0,1-2.244,2.542h0a2.841,2.841,0,0,1,1.278,2.358c.2,1.293.4,2.841.568,3.324l-2.642-.284a14.558,14.558,0,0,1-.483-2.7c-.156-1.42-.582-1.861-1.662-2l-.7-.071-.511,4.46-2.5-.4ZM62.2,17.006l.994.114c1.264.128,2.074-.4,2.2-1.42s-.526-1.662-1.662-1.761a6.25,6.25,0,0,0-1.15,0Z" transform="translate(9.992 -11.627)" fill="#fff"/>
      <path id="Path_38" data-name="Path 38" d="M67.974,21.37a6.506,6.506,0,0,0,2.486,1.548c1.108.369,1.846.085,2.074-.611s-.17-1.221-1.321-2.1c-1.662-1.193-2.429-2.557-1.917-4.119.6-1.832,2.585-2.727,5.113-1.917a6.9,6.9,0,0,1,2.557,1.42l-1.179,1.775a5.369,5.369,0,0,0-2.074-1.236c-1.051-.355-1.662,0-1.9.526s.284,1.179,1.491,2.159c1.662,1.321,2.23,2.6,1.662,4.1-.582,1.79-2.457,2.841-5.411,1.932a7.357,7.357,0,0,1-2.841-1.662Z" transform="translate(13.283 -10.792)" fill="#fff"/>
      <path id="Path_39" data-name="Path 39" d="M71.851,13.778l-3.622-2.017L66.937,14.1l4.034,2.244-.994,1.832L63.67,14.687,69.152,4.83,75.231,8.2l-1.008,1.832L70.36,7.9,69.223,9.943,72.86,11.96Z" transform="translate(26.763 2.026)" fill="#fff"/>
      <path id="Path_40" data-name="Path 40" d="M85.53,30.145a6.505,6.505,0,0,0,1.42,2.528c.81.852,1.662.952,2.116.455s.426-1.15-.17-2.457c-.838-1.79-.937-3.324.256-4.545s3.565-1.193,5.411.739a6.917,6.917,0,0,1,1.662,2.457L94.35,30.33a5.369,5.369,0,0,0-1.25-2.074c-.767-.8-1.491-.838-1.917-.426s-.312,1.179.3,2.613c.852,1.946.753,3.324-.4,4.446s-3.537,1.42-5.681-.852A7.372,7.372,0,0,1,83.74,31.2Z" transform="translate(20.442 -5.99)" fill="#fff"/>
      <path id="Path_41" data-name="Path 41" d="M85.931,28.727l-2.258-3.48L81.429,26.7l2.5,3.906-1.761,1.122L78.29,25.673l9.488-6.093,3.75,5.866-1.761,1.122-2.358-3.707L85.42,24.125l2.244,3.494Z" transform="translate(32.908 8.226)" fill="#fff"/>
      <path id="Path_42" data-name="Path 42" d="M102.834,39.17a22.514,22.514,0,0,1,1.42,3.082,5.753,5.753,0,0,1,.511,3.579,2.841,2.841,0,0,1-1.832,1.9A3,3,0,0,1,99.61,46.9h0a2.841,2.841,0,0,1-1.42,2.258,32.674,32.674,0,0,0-2.613,2.031l-.937-2.514a14.586,14.586,0,0,1,2.145-1.662c1.193-.8,1.42-1.42,1.008-2.358l-.284-.71L93.389,45.6,92.48,43.19Zm-3.579,4.119.4.866c.469,1.179,1.335,1.662,2.244,1.278a1.631,1.631,0,0,0,.781-2.315,6.307,6.307,0,0,0-.5-1.051Z" transform="translate(24.115 -0.158)" fill="#fff"/>
      <path id="Path_43" data-name="Path 43" d="M95.48,53.056l10.581-5.326.426,2.841L102,52.673c-1.264.582-2.486,1.136-3.821,1.662h0a33.109,33.109,0,0,1,4.091.383l4.985.668.412,2.684-11.732-2Z" transform="translate(25.376 3.44)" fill="#fff"/>
      <rect id="Rectangle_4" data-name="Rectangle 4" width="2.557" height="11.277" transform="translate(121.756 68.004) rotate(-89.79)" fill="#fff"/>
      <path id="Path_44" data-name="Path 44" d="M95.235,70.9a7.2,7.2,0,0,1,0-2.94,5.369,5.369,0,0,1,6.661-4.8,5.752,5.752,0,0,1,4.787,7.1,6.661,6.661,0,0,1-.994,2.642l-1.9-.866a5.5,5.5,0,0,0,.8-2.031,3.707,3.707,0,0,0-7.286-1.321,6.349,6.349,0,0,0,0,2.159Z" transform="translate(25.209 9.857)" fill="#fff"/>
      <path id="Path_45" data-name="Path 45" d="M86.556,67.066,88.1,63.2l-2.486-.994-1.733,4.3-1.946-.781,2.684-6.661,10.468,4.19-2.585,6.448-1.946-.781,1.633-4.076-2.159-.881-1.548,3.863Z" transform="translate(34.442 24.825)" fill="#fff"/>
      <path id="Path_46" data-name="Path 46" d="M28.292,90.295c-3.182,2.457-6.235,1.662-7.854-.355s-1.278-5.269,1.52-7.457,6.122-1.9,7.854.369,1.264,5.269-1.534,7.443m-5.681-7c-1.932,1.491-2.983,4.091-1.42,6.122s4.261,1.662,6.406.1c1.79-1.42,3.1-3.977,1.42-6.122s-4.431-1.662-6.42-.1" transform="translate(-6.574 17.419)" fill="#fff"/>
      <path id="Path_47" data-name="Path 47" d="M22.3,74.93l4.261,3.664-.568.668-3.508-3.04L19.627,79.5l3.2,2.77-.554.653-3.2-2.784-3.48,4.02-.753-.639Z" transform="translate(6.238 31.491)" fill="#fff"/>
      <path id="Path_48" data-name="Path 48" d="M35.31,102.974,40.04,92.62l.781.355,1.25,7.954c.256,1.662.284,2.23.412,3.324h0c.526-1.264.994-2.329,1.662-3.963l2.173-4.772.895.412-4.73,10.354-.781-.355-1.15-7.712c-.213-1.548-.327-2.486-.455-3.537h0c-.369.838-.994,2.344-1.775,4.062l-2.031,4.715Z" transform="translate(0.085 22.309)" fill="#fff"/>
      <path id="Path_49" data-name="Path 49" d="M40.684,91.154l-4.233-.994L35.4,94.648l4.787,1.094-.2.852L34.25,95.259,36.807,84.18l5.482,1.264L42.1,86.3l-4.531-1.051-.952,4.076,4.261.98Z" transform="translate(14.397 35.379)" fill="#fff"/>
      <path id="Path_50" data-name="Path 50" d="M54.4,108.618,51.77,97.17h.994l1.42,6.448c.355,1.42.511,2.329.739,3.324h0c.256-.966.454-1.832.909-3.324l1.946-6.363h1.278l1.42,6.406c.312,1.42.469,2.329.653,3.324h0c.284-1.037.5-1.861.966-3.324l1.96-6.349h1.008L61.57,108.788H60.7L59.2,102.127c-.4-1.662-.653-2.841-.8-3.892h0a30.125,30.125,0,0,1-1.094,3.821l-2.145,6.576Z" transform="translate(7.004 24.221)" fill="#fff"/>
      <path id="Path_51" data-name="Path 51" d="M73.018,106.928,71.6,102.3l-5.4-5.113,1.051-.327,2.841,2.7c.71.71,1.165,1.179,1.662,1.662h0c.085-.568.213-1.42.426-2.372l.838-3.75,1.051-.327-1.662,7.286,1.42,4.687Z" transform="translate(13.069 23.213)" fill="#fff"/>
      <path id="Path_52" data-name="Path 52" d="M83.7,95.4c1.932,3.522.71,6.434-1.662,7.684s-5.426.426-7.1-2.684-.895-6.335,1.662-7.7,5.411-.412,7.1,2.684m-7.812,4.488c1.165,2.145,3.565,3.593,5.823,2.358s2.4-3.963,1.108-6.306c-1.094-2-3.423-3.679-5.809-2.372s-2.329,4.1-1.108,6.32" transform="translate(16.367 22.087)" fill="#fff"/>
      <path id="Path_53" data-name="Path 53" d="M80.73,90.535a12.626,12.626,0,0,1,1.662-1.761,4.176,4.176,0,0,1,2.983-1.264,2.841,2.841,0,0,1,1.917,1.037,3.025,3.025,0,0,1,.213,3.707h0a2.841,2.841,0,0,1,2.841.71,15.139,15.139,0,0,0,2.628,1.79l-.781.668a17.044,17.044,0,0,1-2.344-1.662,2.429,2.429,0,0,0-3.395,0l-1.065.895,3.324,3.906-.753.639Zm4.147,3.352,1.236-1.051a2.372,2.372,0,0,0,.526-3.579c-1.065-1.25-2.3-1.008-3.664.128a5.681,5.681,0,0,0-1.008,1.051Z" transform="translate(19.176 20.161)" fill="#fff"/>
      <path id="Path_54" data-name="Path 54" d="M86.08,86.168l.611-.767,4.147,3.324h0c-.114-.5-.256-1.136-.355-1.761L89.6,81.779l.753-.909,1.008,6.406,8.068.454-.739.909-7.045-.483.227,1.42,3.664,2.983-.611.767Z" transform="translate(21.425 17.37)" fill="#fff"/>
      <path id="Path_55" data-name="Path 55" d="M46.184,85.209,28.43,74.4V44.73L46.284,55.51ZM38.926,71.5,43.471,58.01H40.233l-1.662,5.767c-.469,1.548-.881,3.139-1.221,4.758h0c-.312-1.662-.753-3.224-1.193-4.829l-1.662-5.681H31.171l4.261,13.493Zm8.181,13.706L65,74.4V44.73l-17.9,10.78ZM50.431,71.5V58.01H54L56.837,63a39.245,39.245,0,0,1,2.23,4.63h0a50.135,50.135,0,0,1-.27-5.681V57.967h2.954V71.461h-3.38L55.53,66.248a50.227,50.227,0,0,1-2.344-4.758h0c0,1.775.114,3.693.114,5.894v4.062ZM83.723,55.51,65.884,44.73V74.4L83.738,85.2ZM70.7,68.293a7.8,7.8,0,0,0,3.324.852c1.42,0,2.145-.582,2.145-1.42s-.653-1.321-2.258-1.9c-2.23-.739-3.622-2.031-3.622-4.062,0-2.3,1.917-4.062,5.113-4.062a8.323,8.323,0,0,1,3.437.739l-.682,2.457a6.406,6.406,0,0,0-2.841-.653c-1.321,0-1.96.6-1.96,1.292s.767,1.25,2.5,1.9c2.372.881,3.508,2.13,3.508,4.02,0,2.258-1.662,4.261-5.44,4.261a8.778,8.778,0,0,1-3.821-.852Zm17.285,3.139V57.939h3.565l2.841,4.985a39.128,39.128,0,0,1,2.3,4.573h0a50.323,50.323,0,0,1-.27-5.681V58.01h2.841V71.5H96l-2.841-5.213a50.605,50.605,0,0,1-2.344-4.758h0c0,1.775.114,3.693.114,5.894v4.062Zm18.763,0V66.418L102.486,58.1h3.451l1.42,3.238c.412.98.7,1.662,1.051,2.585h0c.3-.852.611-1.662,1.008-2.585l1.42-3.238h3.423l-4.5,8.323v5.227Z" transform="translate(-2.807 2.179)" fill="#fff"/>
      <rect id="Rectangle_5" data-name="Rectangle 5" width="0.739" height="85.22" transform="translate(146.294 23.431)" fill="#fff"/>
      <path id="Path_56" data-name="Path 56" d="M123.3,75.583V73.708c5.539-.284,5.937-.71,5.937-4.1V44.648H123.3V42.8l2.372-.455c4.985-.881,7.6-2.443,10.1-6.207h1.662V69.518c0,3.324.554,3.778,5.681,4.1v1.946Z" transform="translate(37.07 -1.431)" fill="#fff"/>
      <path id="Path_57" data-name="Path 57" d="M157.822,68.816c4.162,0,5.681-.327,8.437-5.61h1.548l-1.662,12.371H140.11V74.085l10.2-10.312c5.866-5.937,8.039-9.7,8.039-14.686,0-4.375-2.443-7.272-7.1-7.272a10.709,10.709,0,0,0-8.522,4.389l-1.42-.881c2.542-4.772,6.491-9.2,13.635-9.2,6.874,0,11.079,3.878,11.079,10.141,0,8.522-10.525,15.851-18.294,22.555Z" transform="translate(44.136 -1.44)" fill="#fff"/>
      <path id="Path_58" data-name="Path 58" d="M170.656,44.314l-1.037,6.377c12.314,0,20.069,3.991,20.069,13.479,0,7.755-5.767,12.527-13.635,12.527-8.323,0-12.783-3.537-12.783-7.769a4.985,4.985,0,0,1,2.613-4.375h4.7a12.781,12.781,0,0,0-.455,3.21c0,4.261,2,6.988,6.207,6.988s6.988-2.841,6.988-7.372c0-6.534-5.866-9.871-17.044-9.942L169.6,37.212h13.976c1.946,0,2.443-.17,3.608-2.372h1.662l-1.491,9.431Z" transform="translate(53.87 -1.978)" fill="#fff"/>
      <path id="Path_59" data-name="Path 59" d="M130.973,82.718c0,1.079.426,1.136,1.662,1.293v.682h-6.306V84.01c1.335-.156,1.761-.213,1.761-1.293V79.394l-3.835-6.974a1.293,1.293,0,0,0-1.165-.739V71H129v.682c-1.193,0-1.534.2-1.534.7a2.244,2.244,0,0,0,.412,1.079l2.727,4.772,2.542-4.73a3.11,3.11,0,0,0,.412-1.108c0-.511-.426-.668-1.548-.7V71h3.949v.682a1.335,1.335,0,0,0-1.165.739l-3.821,7.016Z" transform="translate(36.982 13.221)" fill="#fff"/>
      <path id="Path_60" data-name="Path 60" d="M136.071,84.01c1.42-.156,1.562-.27,1.562-1.349V72.974c0-1.079-.2-1.193-1.562-1.349V71h10.78l.1,3.522h-.568c-.966-2.145-1.534-2.741-3.1-2.741h-2.741v5.454H143.1c.866,0,1.165-.554,1.349-1.818h.682v4.46h-.682c-.2-1.25-.483-1.775-1.349-1.775h-2.557v4.559c0,1.065.526,1.335,1.662,1.335h1.221c1.662,0,2.145-.8,3.466-3.139h.682l-.611,3.92H136Z" transform="translate(42.408 13.221)" fill="#fff"/>
      <path id="Path_61" data-name="Path 61" d="M156.664,80.213h-5.269l-.852,2.173a2.116,2.116,0,0,0-.185.767c0,.639.5.852,1.662.881v.682H148v-.668a1.122,1.122,0,0,0,1.165-.739l4.261-10.979-.611-1.42h3.068l4.985,12.456c.213.526.639.653,1.165.739v.682h-5.894V84.1c1.165,0,1.662-.227,1.662-.866a2.115,2.115,0,0,0-.185-.767Zm-4.985-.852h4.63l-2.358-5.909Z" transform="translate(47.452 13.184)" fill="#fff"/>
      <path id="Path_62" data-name="Path 62" d="M166.32,82.661c0,1.079.2,1.193,1.562,1.349v.682H161.86V84.01c1.42-.156,1.562-.27,1.562-1.349V72.974c0-1.079-.2-1.193-1.562-1.349V71h6.249c3.324,0,5.142,1.534,5.142,3.821a3.863,3.863,0,0,1-3.2,3.622l2.912,3.92c.881,1.193,1.42,1.662,2.4,1.662v.682h-3.721a7.286,7.286,0,0,1-1.662-1.932l-2.713-3.963h-1.008Zm0-10.937v6.249h.952a3.125,3.125,0,0,0,0-6.249Z" transform="translate(53.278 13.221)" fill="#fff"/>
      <path id="Path_63" data-name="Path 63" d="M175.325,83.675l-.185-3.324h.838c.469,2.329,1.662,3.863,3.707,3.863,1.662,0,2.6-.866,2.6-2.216s-.909-2.074-3.21-2.841-3.806-1.861-3.806-4.176a4.119,4.119,0,0,1,4.091-4.162h.5a7.1,7.1,0,0,1,4.076,1.165v2.926h-.739c-.369-2.074-1.491-3.324-3.324-3.324a2.031,2.031,0,0,0-2.23,2.074c0,1.42.753,1.946,2.841,2.713,2.557.98,4.261,2,4.261,4.431,0,2.741-2.258,4.162-4.985,4.162A7.1,7.1,0,0,1,175.325,83.675Z" transform="translate(58.86 13.145)" fill="#fff"/>
      <path id="Path_64" data-name="Path 64" d="M212.556,59.857,205,36.45h4.659l3.182,10.723c.895,2.94,1.662,5.681,2.3,8.522h0c.639-2.841,1.491-5.681,2.4-8.522l3.324-10.7h4.545l-8.082,23.407Z" transform="translate(71.411 -1.301)" fill="#fff"/>
      <path id="Path_65" data-name="Path 65" d="M225.21,38.38a2.4,2.4,0,1,1-2.457-2.329h0a2.273,2.273,0,0,1,2.386,2.159A.5.5,0,0,1,225.21,38.38Zm-4.545,21.632V43.082h4.261V60.026Z" transform="translate(77.888 -1.47)" fill="#fff"/>
      <path id="Path_66" data-name="Path 66" d="M227.028,54.1a9.26,9.26,0,0,0,4.261,1.25c1.875,0,2.713-.8,2.713-1.917s-.7-1.662-2.841-2.457c-3.324-1.108-4.659-2.841-4.659-4.985,0-3,2.457-5.269,6.391-5.269a9.743,9.743,0,0,1,4.5.994l-.866,3a7.485,7.485,0,0,0-3.579-.966c-1.534,0-2.358.767-2.358,1.818s.8,1.562,2.94,2.358c3.1,1.079,4.474,2.642,4.5,5.142,0,3.1-2.4,5.312-6.874,5.312A10.908,10.908,0,0,1,226.02,57.2Z" transform="translate(80.246 0.493)" fill="#fff"/>
      <path id="Path_67" data-name="Path 67" d="M241.67,38.38a2.4,2.4,0,1,1-2.457-2.329h0A2.273,2.273,0,0,1,241.6,38.21.5.5,0,0,1,241.67,38.38Zm-4.545,21.632V43.082h4.261V60.026Z" transform="translate(84.807 -1.47)" fill="#fff"/>
      <path id="Path_68" data-name="Path 68" d="M248.73,38v4.346h4.062v3.139H248.73V52.97c0,2.074.554,3.125,2.173,3.125a5.553,5.553,0,0,0,1.662-.17v3.238a9.389,9.389,0,0,1-3.1.455,4.886,4.886,0,0,1-3.679-1.42,6.661,6.661,0,0,1-1.349-4.758V45.485h-2.4V42.261h2.4V39.122Z" transform="translate(86.98 -0.65)" fill="#fff"/>
      <path id="Path_69" data-name="Path 69" d="M256.5,38.38a2.4,2.4,0,1,1-2.457-2.329h0a2.273,2.273,0,0,1,2.386,2.159A.5.5,0,0,1,256.5,38.38Zm-4.545,21.632V43.082h4.261V60.026Z" transform="translate(91.041 -1.47)" fill="#fff"/>
      <path id="Path_70" data-name="Path 70" d="M257.448,46.139c0-1.946,0-3.579-.128-4.985h3.707l.213,2.528h.1a6.207,6.207,0,0,1,5.426-2.841c2.94,0,6.008,1.917,6.008,7.258v9.942h-4.261V48.454c0-2.429-.895-4.261-3.224-4.261a3.593,3.593,0,0,0-3.324,2.5,3.992,3.992,0,0,0-.2,1.349v9.942H257.5Z" transform="translate(93.403 0.543)" fill="#fff"/>
      <path id="Path_71" data-name="Path 71" d="M287,55.6c0,3.537-.739,6.079-2.5,7.67a9.672,9.672,0,0,1-6.519,2,12.357,12.357,0,0,1-5.909-1.349l.937-3.224a10.212,10.212,0,0,0,4.985,1.278c2.841,0,4.858-1.42,4.858-5.113v-1.42h0a5.681,5.681,0,0,1-4.985,2.5c-4.261,0-7.187-3.48-7.187-8.323,0-5.553,3.608-8.92,7.67-8.92a5.284,5.284,0,0,1,4.886,2.642h0l.17-2.258h3.707c0,1.15-.128,2.528-.128,4.858Zm-4.261-7.67a3.989,3.989,0,0,0-.114-1.079,3.537,3.537,0,0,0-3.48-2.741c-2.4,0-4.162,2.074-4.162,5.525,0,2.841,1.42,5.213,4.119,5.213a3.65,3.65,0,0,0,3.508-2.656,5.157,5.157,0,0,0,.17-1.491Z" transform="translate(99.018 0.483)" fill="#fff"/>
      <path id="Path_72" data-name="Path 72" d="M290.54,59.857V36.45h4.914l6.036,9.942a69.384,69.384,0,0,1,3.906,7.883h0a95.722,95.722,0,0,1-.384-9.715V36.45h4.1V59.857h-4.446l-6.107-10.312a80.5,80.5,0,0,1-4.076-8.053h-.128c.17,3.025.256,6.107.256,9.942v8.323Z" transform="translate(107.366 -1.301)" fill="#fff"/>
      <path id="Path_73" data-name="Path 73" d="M322.115,52.874c0,2.017,0,3.679.128,4.985h-3.707l-.156-2.528h-.1a6.193,6.193,0,0,1-5.454,3.025c-3.068,0-5.866-1.846-5.866-7.372V41h4.261v9.2c0,2.841.895,4.63,3.167,4.63a3.48,3.48,0,0,0,3.324-2.3,3.1,3.1,0,0,0,.256-1.321V41h4.261Z" transform="translate(114.268 0.611)" fill="#fff"/>
      <path id="Path_74" data-name="Path 74" d="M320.918,46.588c0-2.3,0-3.963-.128-5.454h3.679l.171,3.2h.128a4.985,4.985,0,0,1,4.659-3.579,4.46,4.46,0,0,1,1.008.1v3.991a6.818,6.818,0,0,0-1.278-.1,3.764,3.764,0,0,0-3.806,3.224,7.369,7.369,0,0,0-.1,1.278v8.778h-4.261Z" transform="translate(120.081 0.506)" fill="#fff"/>
      <path id="Path_75" data-name="Path 75" d="M329.738,54.1A9.26,9.26,0,0,0,334,55.35c1.875,0,2.713-.8,2.713-1.917s-.7-1.662-2.841-2.457c-3.324-1.108-4.659-2.841-4.659-4.985,0-3,2.457-5.269,6.391-5.269a9.744,9.744,0,0,1,4.5.994l-.867,3a7.485,7.485,0,0,0-3.579-.966c-1.534,0-2.358.767-2.358,1.818s.8,1.562,2.94,2.358c3.1,1.079,4.474,2.642,4.5,5.142,0,3.1-2.4,5.312-6.874,5.312A10.908,10.908,0,0,1,328.73,57.2Z" transform="translate(123.418 0.493)" fill="#fff"/>
      <path id="Path_76" data-name="Path 76" d="M343.111,50.8c.1,3.068,2.457,4.375,5.213,4.375a13.607,13.607,0,0,0,4.687-.767l.639,2.841a15.169,15.169,0,0,1-5.909,1.079c-5.5,0-8.721-3.324-8.721-8.522,0-4.687,2.841-9.1,8.323-9.1s7.286,4.5,7.286,8.238a10.658,10.658,0,0,1-.128,1.818Zm7.442-2.983a3.65,3.65,0,0,0-3.111-4.1h-.4a4.176,4.176,0,0,0-3.92,4.119Z" transform="translate(127.744 0.485)" fill="#fff"/>
      <path id="Path_77" data-name="Path 77" d="M357.81,55.292a11.647,11.647,0,0,0,5.681,1.491c2.713,0,4.261-1.278,4.261-3.2s-1.179-2.841-4.119-3.892c-3.892-1.42-6.349-3.437-6.349-6.8,0-3.863,3.2-6.661,8.323-6.661a12.2,12.2,0,0,1,5.6,1.179L370.2,40.848a10.2,10.2,0,0,0-4.687-1.108c-2.713,0-3.863,1.42-3.863,2.841,0,1.818,1.349,2.642,4.474,3.863,4.062,1.534,6.008,3.579,6.008,6.931,0,3.792-2.841,7.1-8.849,7.1a13.493,13.493,0,0,1-6.349-1.491Z" transform="translate(135.272 -1.395)" fill="#fff"/>
      <path id="Path_78" data-name="Path 78" d="M373.611,50.8c.1,3.068,2.457,4.375,5.213,4.375a13.607,13.607,0,0,0,4.687-.767l.639,2.841a15.183,15.183,0,0,1-5.909,1.079c-5.5,0-8.721-3.324-8.721-8.522,0-4.687,2.841-9.1,8.323-9.1s7.286,4.5,7.286,8.238A10.655,10.655,0,0,1,385,50.756Zm7.443-2.983a3.65,3.65,0,0,0-3.11-4.1h-.469a4.176,4.176,0,0,0-3.92,4.119Z" transform="translate(140.564 0.485)" fill="#fff"/>
      <path id="Path_79" data-name="Path 79" d="M382.938,46.588c0-2.3,0-3.963-.128-5.454h3.679l.17,3.2h.1a4.985,4.985,0,0,1,4.659-3.579,4.46,4.46,0,0,1,1.008.1v3.991a6.817,6.817,0,0,0-1.278-.1,3.764,3.764,0,0,0-3.806,3.224,7.369,7.369,0,0,0-.1,1.278v8.778H382.98Z" transform="translate(146.15 0.506)" fill="#fff"/>
      <path id="Path_80" data-name="Path 80" d="M395.353,41l2.741,8.522c.483,1.491.838,2.841,1.15,4.261h.1c.312-1.42.7-2.713,1.151-4.261L403.208,41h4.474l-6.448,16.916h-4.261L390.78,41Z" transform="translate(149.5 0.611)" fill="#fff"/>
      <path id="Path_81" data-name="Path 81" d="M409.17,38.38a2.4,2.4,0,1,1-2.486-2.329h0a2.273,2.273,0,0,1,2.386,2.159S409.17,38.323,409.17,38.38Zm-4.545,21.632V43.082h4.261V60.026Z" transform="translate(155.212 -1.47)" fill="#fff"/>
      <path id="Path_82" data-name="Path 82" d="M423.584,57.533a12.371,12.371,0,0,1-4.786.866,8.153,8.153,0,0,1-8.792-8.664c0-4.985,3.48-9,9.417-9a11.363,11.363,0,0,1,4.119.767l-.753,3.238a7.016,7.016,0,0,0-3.224-.668,4.985,4.985,0,0,0-5.17,5.5,4.985,4.985,0,0,0,5.17,5.454,8.521,8.521,0,0,0,3.323-.668Z" transform="translate(157.573 0.498)" fill="#fff"/>
      <path id="Path_83" data-name="Path 83" d="M424.891,50.8c.1,3.068,2.457,4.375,5.213,4.375a13.607,13.607,0,0,0,4.687-.767l.639,2.841a15.169,15.169,0,0,1-5.909,1.079c-5.5,0-8.721-3.324-8.721-8.522,0-4.687,2.841-9.1,8.323-9.1s7.286,4.5,7.286,8.238a10.661,10.661,0,0,1-.128,1.818Zm7.443-2.983a3.65,3.65,0,0,0-3.125-4.091h-.383a4.176,4.176,0,0,0-3.92,4.119Z" transform="translate(162.118 0.485)" fill="#fff"/>
      <path id="Path_84" data-name="Path 84" d="M222.858,76.5a8.323,8.323,0,0,1-8.678,9,8.167,8.167,0,0,1-8.522-8.721,8.323,8.323,0,0,1,8.749-8.962A8.124,8.124,0,0,1,222.8,76.5Zm-12.783.17c0,3.324,1.662,5.681,4.261,5.681s4.119-2.344,4.119-5.767c0-2.642-1.179-5.681-4.091-5.681s-4.261,2.94-4.261,5.752Z" transform="translate(71.677 11.881)" fill="#fff"/>
      <path id="Path_85" data-name="Path 85" d="M221.187,87.423V73.717H218.9v-3.21h2.3v-.739A7.9,7.9,0,0,1,223.3,64a6.406,6.406,0,0,1,4.4-1.662,8.877,8.877,0,0,1,2.713.412l-.284,3.324a5.17,5.17,0,0,0-1.846-.312c-2.116,0-2.841,1.761-2.841,3.863v.866h3.679v3.2h-3.65V87.423Z" transform="translate(77.253 9.581)" fill="#fff"/>
      <path id="Path_86" data-name="Path 86" d="M233.17,86.927V63.52h4.886l6.036,9.942a69.753,69.753,0,0,1,3.991,7.854h0A95.776,95.776,0,0,1,247.7,71.6V63.52h4.076V86.927h-4.446l-6.107-10.312a80.506,80.506,0,0,1-4.162-8.053h-.128c.17,3.025.256,6.107.256,9.942v8.423Z" transform="translate(83.252 10.077)" fill="#fff"/>
      <path id="Path_87" data-name="Path 87" d="M252.945,77.866c.1,3,2.457,4.417,5.2,4.417a13.607,13.607,0,0,0,4.687-.767l.639,2.841a15.169,15.169,0,0,1-5.909,1.079c-5.5,0-8.721-3.324-8.721-8.522,0-4.687,2.841-9.1,8.323-9.1s7.286,4.5,7.286,8.238a10.657,10.657,0,0,1-.128,1.818ZM260.43,74.9a3.65,3.65,0,0,0-3.111-4.1h-.412a4.176,4.176,0,0,0-3.92,4.119Z" transform="translate(89.838 11.881)" fill="#fff"/>
      <path id="Path_88" data-name="Path 88" d="M265.261,68.09l1.662,7.67c.412,1.818.8,3.65,1.108,5.5h0c.355-1.846.895-3.707,1.349-5.454l2.372-7.7H275.2l2.116,7.5c.511,1.974.966,3.821,1.349,5.681h0c.256-1.846.668-3.679,1.108-5.681l1.932-7.5h4.261l-5.383,16.9h-3.963l-2.017-6.874a52.028,52.028,0,0,1-1.278-5.426h0a52.249,52.249,0,0,1-1.278,5.426l-2.074,6.874h-4.005L261,68.09Z" transform="translate(94.949 11.998)" fill="#fff"/>
      <path id="Path_89" data-name="Path 89" d="M290.52,86.923V77.165l-7.4-13.635h4.886l2.841,6.008c.8,1.662,1.42,3.068,2.045,4.659h0c.554-1.491,1.221-2.94,2.017-4.659l2.841-6.008h4.829L294.8,77.066v9.857Z" transform="translate(104.247 10.082)" fill="#fff"/>
      <path id="Path_90" data-name="Path 90" d="M312.617,76.5a8.323,8.323,0,0,1-8.678,9,8.167,8.167,0,0,1-8.451-8.721,8.323,8.323,0,0,1,8.749-8.962,8.124,8.124,0,0,1,8.38,8.678Zm-12.783.17c0,3.324,1.662,5.681,4.261,5.681s4.119-2.358,4.119-5.809c0-2.642-1.179-5.681-4.091-5.681s-4.261,2.983-4.261,5.795Z" transform="translate(109.435 11.881)" fill="#fff"/>
      <path id="Path_91" data-name="Path 91" d="M310.038,73.745c0-2.3,0-3.963-.128-5.454h3.679l.17,3.2h.1a4.985,4.985,0,0,1,4.7-3.636,4.461,4.461,0,0,1,1.008.1v3.991a6.888,6.888,0,0,0-1.278-.1,3.764,3.764,0,0,0-3.821,3.224,7.369,7.369,0,0,0-.1,1.278v8.763h-4.261Z" transform="translate(115.508 11.897)" fill="#fff"/>
      <path id="Path_92" data-name="Path 92" d="M322.984,77.83h0c.412-.668.895-1.42,1.321-1.974l4.119-5.454h5.142L327.3,77.376l7.1,9.942h-5.184l-4.858-7.471-1.42,1.662v5.809H318.68V62.59h4.261Z" transform="translate(119.194 9.686)" fill="#fff"/>
    </g>
    <text id="Command_Center_Dashboard" data-name="Command Center Dashboard" transform="translate(222 591.719)" fill="#fff" font-size="40" font-family="MyriadPro-Regular, Myriad Pro"><tspan x="0" y="0">Command Center Dashboard</tspan></text>
  </g>
</svg>
