<svg xmlns="http://www.w3.org/2000/svg" width="393" height="95" viewBox="0 0 393 95">
  <g id="Group_19493" data-name="Group 19493" transform="translate(20262 11844)">
    <rect id="Rectangle_4208" data-name="Rectangle 4208" width="393" height="95" transform="translate(-20262 -11844)" fill="#fff"/>
    <text id="Visiting_Nurse_Service_of_New_York" data-name="Visiting Nurse Service
of New York" transform="translate(-20150 -11800)" fill="#231f20" font-size="28" font-family="MyriadPro-Semibold, Myriad Pro" font-weight="600" letter-spacing="0.014em"><tspan x="0" y="0">Visiting Nurse Service</tspan><tspan x="0" y="31">of New York</tspan></text>
    <g id="Group_19492" data-name="Group 19492" transform="translate(0 -94.319)">
      <path id="Path_30" data-name="Path 30" d="M20.178,72.515l-5.917,4.549-.59-1.618,2.547-1.841c.715-.509,1.4-.992,2.181-1.457h0c-.894.116-1.725.2-2.574.241l-3.137.17L12,70.9l7.516-.107Z" transform="translate(-20263.08 -11760.658)"/>
      <rect id="Rectangle_1" data-name="Rectangle 1" width="7.096" height="1.609" transform="matrix(0.985, -0.172, 0.172, 0.985, -20251.902, -11694.463)"/>
      <path id="Path_31" data-name="Path 31" d="M15.976,60.674a4.093,4.093,0,0,0,.429-1.787c0-.733-.313-1.117-.778-1.117s-.688.349-.992,1.2c-.4,1.18-1.046,1.957-2.091,1.966-1.215,0-2.091-1.046-2.154-2.681a4.353,4.353,0,0,1,.349-1.787l1.3.349a3.369,3.369,0,0,0-.322,1.484c0,.688.322,1.046.688,1.046s.652-.411.992-1.323c.447-1.26,1.1-1.85,2.091-1.85,1.2,0,2.216.894,2.225,2.851a4.63,4.63,0,0,1-.429,2.011Z" transform="translate(-20262.91 -11759.105)"/>
      <rect id="Rectangle_2" data-name="Rectangle 2" width="1.609" height="7.096" transform="translate(-20252.006 -11706.376) rotate(-81.2)"/>
      <path id="Path_32" data-name="Path 32" d="M3.259,33.7l-.572,1.823L1.4,35.112l1.636-5.2,1.287.411-.581,1.85,5.488,1.734-.492,1.528Z" transform="translate(-20252.668 -11745.859)"/>
      <rect id="Rectangle_3" data-name="Rectangle 3" width="1.609" height="7.096" transform="translate(-20248.564 -11718.245) rotate(-64.23)"/>
      <path id="Path_33" data-name="Path 33" d="M23.523,36.941,17.83,32.749l1.1-1.519,2.958.366a20.556,20.556,0,0,1,2.681.527h0a26.446,26.446,0,0,1-2.458-1.689L20.458,29.21l.894-1.18,5.693,4.192-1.108,1.35-3.137-.42a26.3,26.3,0,0,1-2.744-.5h0c.778.527,1.591,1.1,2.52,1.787l1.716,1.278Z" transform="translate(-20263.701 -11756.116)"/>
      <path id="Path_34" data-name="Path 34" d="M33.962,25.7a7.937,7.937,0,0,1-1.582,1.787,3.959,3.959,0,0,1-2.824,1.108,3.432,3.432,0,0,1-2.413-1.358c-1.493-1.787-1.046-3.959.751-5.443A4.889,4.889,0,0,1,29.6,20.8l.563,1.207a3.932,3.932,0,0,0-1.466.813,2.145,2.145,0,0,0-.349,3.262,2.091,2.091,0,0,0,3.2.366,2.154,2.154,0,0,0,.545-.59l-.9-1.126-.84.7-.8-.965,2.029-1.7Z" transform="translate(-20264.594 -11755.348)"/>
      <path id="Path_35" data-name="Path 35" d="M40.566,22.2,38.18,15.516l1.787-.626,2.261,1.948a20.619,20.619,0,0,1,1.93,1.9h0a26.4,26.4,0,0,1-1.126-2.753l-.688-1.948,1.394-.492,2.324,6.658-1.573.527L42.13,18.644a26.32,26.32,0,0,1-2-1.948h0c.358.894.715,1.787,1.1,2.887l.724,2.011Z" transform="translate(-20265.861 -11754.576)"/>
      <path id="Path_36" data-name="Path 36" d="M50.409,12.175l.465,4.058c.134,1.215.67,1.787,1.484,1.689s1.233-.733,1.046-1.975l-.465-4.058,1.591-.179.447,3.959c.25,2.181-.733,3.343-2.574,3.575s-2.931-.661-3.137-2.914L48.8,12.416Z" transform="translate(-20266.99 -11754.382)"/>
      <path id="Path_37" data-name="Path 37" d="M59.684,11.889a14.1,14.1,0,0,1,2.091.1,3.62,3.62,0,0,1,2.216.8,1.787,1.787,0,0,1,.483,1.546,1.886,1.886,0,0,1-1.412,1.6h0a1.787,1.787,0,0,1,.8,1.484c.125.813.25,1.787.358,2.091l-1.662-.179a9.16,9.16,0,0,1-.3-1.7c-.1-.894-.366-1.171-1.046-1.26l-.438-.045-.322,2.806-1.573-.25Zm1.287,3.217.626.071c.8.08,1.3-.25,1.385-.894s-.331-1.046-1.046-1.108a3.933,3.933,0,0,0-.724,0Z" transform="translate(-20268.063 -11754.4)"/>
      <path id="Path_38" data-name="Path 38" d="M67.505,18.589a4.094,4.094,0,0,0,1.564.974c.7.232,1.162.054,1.3-.384s-.107-.769-.831-1.323c-1.046-.751-1.528-1.609-1.207-2.592.375-1.153,1.627-1.716,3.217-1.207a4.344,4.344,0,0,1,1.609.894l-.742,1.117a3.378,3.378,0,0,0-1.3-.778c-.661-.223-1.046,0-1.2.331s.179.742.938,1.358c1.046.831,1.4,1.636,1.046,2.583-.366,1.126-1.546,1.787-3.405,1.215a4.629,4.629,0,0,1-1.787-1.046Z" transform="translate(-20268.895 -11754.611)"/>
      <path id="Path_39" data-name="Path 39" d="M68.818,10.461,66.539,9.191l-.813,1.475,2.538,1.412-.626,1.153-3.968-2.2,3.45-6.2,3.825,2.118L70.311,8.1,67.88,6.76l-.715,1.287,2.288,1.269Z" transform="translate(-20259.285 -11743.193)"/>
      <path id="Path_40" data-name="Path 40" d="M84.866,28.347a4.093,4.093,0,0,0,.894,1.591c.509.536,1.046.6,1.332.286s.268-.724-.107-1.546c-.527-1.126-.59-2.091.161-2.86s2.243-.751,3.405.465A4.352,4.352,0,0,1,91.6,27.829l-1.18.635a3.378,3.378,0,0,0-.786-1.3c-.483-.5-.938-.527-1.207-.268s-.2.742.188,1.644c.536,1.224.474,2.091-.25,2.8s-2.225.894-3.575-.536a4.639,4.639,0,0,1-1.046-1.787Z" transform="translate(-20270.703 -11755.825)"/>
      <path id="Path_41" data-name="Path 41" d="M83.1,25.336l-1.421-2.19-1.412.912,1.573,2.458-1.108.706-2.44-3.807,5.97-3.834,2.359,3.691-1.108.706-1.484-2.333-1.251.8,1.412,2.2Z" transform="translate(-20260.838 -11744.761)"/>
      <path id="Path_42" data-name="Path 42" d="M99,39.17a14.166,14.166,0,0,1,.894,1.939,3.62,3.62,0,0,1,.322,2.252,1.788,1.788,0,0,1-1.153,1.2,1.886,1.886,0,0,1-2.091-.527h0a1.788,1.788,0,0,1-.894,1.421,20.56,20.56,0,0,0-1.644,1.278l-.59-1.582a9.179,9.179,0,0,1,1.35-1.046c.751-.5.894-.894.635-1.484l-.179-.447-2.592,1.046L92.48,41.7Zm-2.252,2.592.25.545c.295.742.84,1.046,1.412.8a1.027,1.027,0,0,0,.492-1.457,3.969,3.969,0,0,0-.313-.661Z" transform="translate(-20271.631 -11757.3)"/>
      <path id="Path_43" data-name="Path 43" d="M95.48,51.082l6.658-3.352.268,1.787L99.582,50.84c-.8.366-1.564.715-2.4,1.046h0a20.833,20.833,0,0,1,2.574.241l3.137.42.259,1.689-7.382-1.26Z" transform="translate(-20271.951 -11758.209)"/>
      <rect id="Rectangle_4" data-name="Rectangle 4" width="1.609" height="7.096" transform="translate(-20175.904 -11699.886) rotate(-89.79)"/>
      <path id="Path_44" data-name="Path 44" d="M95.179,67.969a4.531,4.531,0,0,1,0-1.85A3.378,3.378,0,0,1,99.37,63.1a3.62,3.62,0,0,1,3.012,4.469,4.192,4.192,0,0,1-.626,1.662l-1.2-.545a3.459,3.459,0,0,0,.5-1.278,2.333,2.333,0,0,0-4.585-.831,4,4,0,0,0,0,1.358Z" transform="translate(-20271.908 -11759.831)"/>
      <path id="Path_45" data-name="Path 45" d="M84.845,64.1l.974-2.431-1.564-.626-1.09,2.708-1.224-.492,1.689-4.192,6.587,2.637-1.627,4.058-1.224-.492,1.028-2.565-1.359-.554-.974,2.431Z" transform="translate(-20261.227 -11748.957)"/>
      <path id="Path_46" data-name="Path 46" d="M25.02,86.844c-2,1.546-3.924,1.046-4.942-.223s-.8-3.316.956-4.692,3.852-1.2,4.942.232.8,3.316-.965,4.683m-3.575-4.406c-1.215.938-1.877,2.574-.894,3.852s2.681,1.046,4.031.063c1.126-.894,1.948-2.5.894-3.852s-2.788-1.046-4.04-.063" transform="translate(-20263.875 -11761.742)"/>
      <path id="Path_47" data-name="Path 47" d="M19.532,74.93l2.681,2.306-.358.42-2.208-1.913-1.8,2.065,2.011,1.743-.349.411L17.5,78.21l-2.19,2.529-.474-.4Z" transform="translate(-20254.096 -11750.642)"/>
      <path id="Path_48" data-name="Path 48" d="M35.31,99.135l2.976-6.515.492.223.786,5c.161,1.046.179,1.4.259,2.091h0c.331-.8.626-1.466,1.046-2.494l1.367-3,.563.259-2.976,6.515-.492-.223-.724-4.853c-.134-.974-.206-1.564-.286-2.225h0c-.232.527-.626,1.475-1.117,2.556l-1.278,2.967Z" transform="translate(-20265.557 -11762.979)"/>
      <path id="Path_49" data-name="Path 49" d="M38.3,88.568l-2.663-.626-.661,2.824,3.012.688-.125.536-3.611-.84,1.609-6.971,3.45.8-.116.536-2.851-.661-.6,2.565,2.681.617Z" transform="translate(-20256.158 -11751.624)"/>
      <path id="Path_50" data-name="Path 50" d="M53.423,104.374l-1.653-7.2H52.4l.894,4.058c.223.894.322,1.466.465,2.091h0c.161-.608.286-1.153.572-2.091l1.224-4h.8l.894,4.031c.2.894.295,1.466.411,2.091h0c.179-.652.313-1.171.608-2.091l1.233-4h.635l-2.2,7.221h-.545l-.947-4.192c-.25-1.046-.411-1.787-.5-2.449h0a18.956,18.956,0,0,1-.688,2.4l-1.35,4.138Z" transform="translate(-20267.307 -11763.462)"/>
      <path id="Path_51" data-name="Path 51" d="M70.49,102.42,69.6,99.507l-3.4-3.217.661-.206,1.788,1.7c.447.447.733.742,1.046,1.046h0c.054-.357.134-.894.268-1.493l.527-2.359.661-.206-1.046,4.585L71,102.3Z" transform="translate(-20268.84 -11763.207)"/>
      <path id="Path_52" data-name="Path 52" d="M80.118,94.173c1.215,2.216.447,4.049-1.046,4.835A3.291,3.291,0,0,1,74.6,97.319c-1.055-1.957-.563-3.986,1.046-4.844s3.405-.259,4.469,1.689M75.2,96.988c.733,1.35,2.243,2.261,3.664,1.484s1.51-2.494.7-3.968c-.688-1.26-2.154-2.315-3.655-1.493s-1.466,2.583-.7,3.977" transform="translate(-20269.672 -11762.923)"/>
      <path id="Path_53" data-name="Path 53" d="M80.73,89.414a7.945,7.945,0,0,1,1.046-1.108,2.628,2.628,0,0,1,1.877-.8,1.787,1.787,0,0,1,1.207.652,1.9,1.9,0,0,1,.134,2.333h0a1.787,1.787,0,0,1,1.787.447,9.527,9.527,0,0,0,1.653,1.126l-.492.42a10.726,10.726,0,0,1-1.475-1.046,1.528,1.528,0,0,0-2.136,0l-.67.563,2.091,2.458-.474.4Zm2.61,2.109.778-.661a1.493,1.493,0,0,0,.331-2.252c-.67-.786-1.448-.635-2.306.08a3.575,3.575,0,0,0-.635.661Z" transform="translate(-20270.383 -11762.436)"/>
      <path id="Path_54" data-name="Path 54" d="M86.08,84.2l.384-.483,2.61,2.091h0C89,85.5,88.913,85.1,88.851,84.7L88.3,81.442l.474-.572L89.4,84.9l5.076.286-.465.572-4.433-.3.143.894,2.306,1.877-.384.483Z" transform="translate(-20270.951 -11761.73)"/>
      <path id="Path_55" data-name="Path 55" d="M39.6,70.2,28.43,63.4V44.73l11.234,6.784Zm-4.567-8.625,2.86-8.491H35.857l-1.046,3.629c-.295.974-.554,1.975-.769,2.994h0c-.2-1.046-.474-2.029-.751-3.039L32.246,53.1H30.155l2.681,8.491ZM40.183,70.2l11.261-6.8V44.73L40.183,51.514Zm2.091-8.625V53.087h2.243L46.3,56.224a24.7,24.7,0,0,1,1.4,2.914h0a31.548,31.548,0,0,1-.17-3.575v-2.5H49.4V61.55H47.27l-1.787-3.28a31.6,31.6,0,0,1-1.475-2.994h0c0,1.117.071,2.324.071,3.709v2.556ZM63.224,51.514,52,44.73V63.4l11.234,6.792Zm-8.2,8.044a4.907,4.907,0,0,0,2.091.536c.894,0,1.35-.366,1.35-.894s-.411-.831-1.421-1.2c-1.4-.465-2.279-1.278-2.279-2.556,0-1.448,1.207-2.556,3.217-2.556a5.237,5.237,0,0,1,2.163.465L59.72,54.9a4.031,4.031,0,0,0-1.788-.411c-.831,0-1.233.375-1.233.813s.483.786,1.573,1.2c1.493.554,2.208,1.341,2.208,2.529,0,1.421-1.046,2.681-3.423,2.681a5.523,5.523,0,0,1-2.4-.536ZM65.9,61.532V53.042h2.243l1.787,3.137a24.621,24.621,0,0,1,1.448,2.878h0a31.667,31.667,0,0,1-.17-3.575v-2.4H73v8.491H70.946L69.158,58.3A31.845,31.845,0,0,1,67.683,55.3h0c0,1.117.072,2.324.072,3.709v2.556Zm11.806,0V58.378L75.03,53.14H77.2l.894,2.038c.259.617.438,1.046.661,1.627h0c.188-.536.384-1.046.635-1.627l.894-2.038h2.154l-2.833,5.237v3.289Z" transform="translate(-20264.826 -11757.89)" fill="#005daa"/>
    </g>
  </g>
</svg>
