<svg xmlns="http://www.w3.org/2000/svg" width="23.4" height="23.917" viewBox="0 0 23.4 23.917">
  <path id="Path_14724" data-name="Path 14724" d="M21.55,3A5.867,5.867,0,0,0,15.7,8.85a7.85,7.85,0,0,0,.853,3.047,34.246,34.246,0,0,0,1.706,3.321q1.174,2.012,2.5,3.93l.792,1.158.793-1.158s1.257-1.789,2.5-3.929A34.245,34.245,0,0,0,26.547,11.9,7.85,7.85,0,0,0,27.4,8.85,5.867,5.867,0,0,0,21.55,3ZM11.77,4.89,4,8.21V26.917l7.83-3.381,7.8,2.925,7.77-3.322v-8.5q-.907,1.714-1.95,3.351v3.87l-4.875,2.072V22.347l-1.432-2.072c-.152-.221-.332-.484-.518-.762v4.509l-5.85-2.194V7.327l1.067.4a7.657,7.657,0,0,1,.518-1.89Zm9.78.06a3.888,3.888,0,0,1,3.9,3.9,7.263,7.263,0,0,1-.671,2.255,33.8,33.8,0,0,1-1.645,3.138c-.8,1.371-1.139,1.858-1.584,2.529-.446-.671-.789-1.158-1.584-2.529A33.935,33.935,0,0,1,18.32,11.1a7.255,7.255,0,0,1-.67-2.254A3.888,3.888,0,0,1,21.55,4.95ZM10.825,7.388V21.861L5.95,23.932V9.49Zm10.725,0A1.463,1.463,0,1,0,23.013,8.85,1.463,1.463,0,0,0,21.55,7.388Z" transform="translate(-4 -3)" fill="#adadad"/>
</svg>
