<svg xmlns="http://www.w3.org/2000/svg" width="364.44" height="80.983" viewBox="0 0 364.44 80.983">
  <g id="VNSNY-125-logo" transform="translate(0.001 -0.01)">
    <path id="Path_30" data-name="Path 30" d="M19.913,72.459l-5.725,4.4L13.617,75.3l2.465-1.782c.692-.493,1.358-.96,2.11-1.41h0c-.865.112-1.669.19-2.491.234l-3.036.164L12,70.894l7.273-.1Z" transform="translate(-10.608 -19.686)"/>
    <rect id="Rectangle_1" data-name="Rectangle 1" width="6.867" height="1.557" transform="matrix(0.985, -0.172, 0.172, 0.985, 0.597, 46.659)"/>
    <path id="Path_31" data-name="Path 31" d="M15.8,60.529a3.961,3.961,0,0,0,.415-1.73c0-.709-.3-1.081-.752-1.081s-.666.337-.96,1.159c-.389,1.142-1.012,1.894-2.024,1.9-1.176,0-2.024-1.012-2.084-2.594a4.212,4.212,0,0,1,.337-1.73l1.254.337a3.26,3.26,0,0,0-.311,1.436c0,.666.311,1.012.666,1.012s.631-.4.96-1.28c.432-1.219,1.064-1.79,2.024-1.79,1.159,0,2.145.865,2.153,2.759a4.48,4.48,0,0,1-.415,1.946Z" transform="translate(-10.39 -17.71)"/>
    <rect id="Rectangle_2" data-name="Rectangle 2" width="1.557" height="6.867" transform="translate(0.497 35.131) rotate(-81.2)"/>
    <path id="Path_32" data-name="Path 32" d="M3.2,33.577l-.553,1.764-1.245-.4L2.983,29.91l1.245.4L3.666,32.1l5.31,1.678L8.5,35.255Z" transform="translate(-0.189 -4.042)"/>
    <rect id="Rectangle_3" data-name="Rectangle 3" width="1.557" height="6.867" transform="translate(3.827 23.646) rotate(-64.23)"/>
    <path id="Path_33" data-name="Path 33" d="M23.339,36.652,17.83,32.6l1.064-1.47,2.863.355a19.891,19.891,0,0,1,2.594.51h0a25.59,25.59,0,0,1-2.378-1.635l-1.6-1.185.865-1.142,5.509,4.056-1.072,1.306-3.036-.406a25.451,25.451,0,0,1-2.655-.484h0c.752.51,1.539,1.064,2.439,1.73l1.66,1.237Z" transform="translate(-11.396 -13.906)"/>
    <path id="Path_34" data-name="Path 34" d="M33.713,25.539a7.68,7.68,0,0,1-1.531,1.73,3.831,3.831,0,0,1-2.733,1.072,3.321,3.321,0,0,1-2.335-1.315C25.67,25.3,26.1,23.2,27.841,21.76a4.731,4.731,0,0,1,1.652-.96l.545,1.168a3.805,3.805,0,0,0-1.418.787,2.076,2.076,0,0,0-.337,3.157,2.024,2.024,0,0,0,3.1.355,2.084,2.084,0,0,0,.528-.571l-.873-1.09-.813.675-.77-.934L31.412,22.7Z" transform="translate(-12.533 -12.929)"/>
    <path id="Path_35" data-name="Path 35" d="M40.489,21.922,38.18,15.453l1.73-.605L42.1,16.733a19.951,19.951,0,0,1,1.868,1.842h0a25.546,25.546,0,0,1-1.09-2.664l-.666-1.885,1.349-.476,2.249,6.443-1.522.51L42,18.48a25.468,25.468,0,0,1-1.937-1.885h0c.346.865.692,1.73,1.064,2.793l.7,1.946Z" transform="translate(-14.147 -11.949)"/>
    <path id="Path_36" data-name="Path 36" d="M50.357,12.16l.45,3.926c.13,1.176.649,1.73,1.436,1.635s1.193-.709,1.012-1.911l-.45-3.926,1.539-.173.432,3.831c.242,2.11-.709,3.234-2.491,3.459s-2.837-.64-3.036-2.819l-.45-3.788Z" transform="translate(-15.582 -11.7)"/>
    <path id="Path_37" data-name="Path 37" d="M59.658,11.889a13.647,13.647,0,0,1,2.024.1,3.5,3.5,0,0,1,2.145.778,1.73,1.73,0,0,1,.467,1.5,1.825,1.825,0,0,1-1.366,1.548h0a1.73,1.73,0,0,1,.778,1.436c.121.787.242,1.73.346,2.024l-1.609-.173a8.864,8.864,0,0,1-.294-1.643c-.1-.865-.355-1.133-1.012-1.219l-.424-.043L60.4,18.9l-1.522-.242ZM60.9,15l.605.069c.77.078,1.263-.242,1.34-.865s-.32-1.012-1.012-1.072a3.805,3.805,0,0,0-.7,0Z" transform="translate(-16.945 -11.724)"/>
    <path id="Path_38" data-name="Path 38" d="M67.48,18.436a3.961,3.961,0,0,0,1.513.943c.675.225,1.124.052,1.263-.372s-.1-.744-.8-1.28C68.44,17,67.973,16.17,68.284,15.219c.363-1.116,1.574-1.66,3.113-1.168a4.2,4.2,0,0,1,1.557.865L72.236,16a3.269,3.269,0,0,0-1.263-.752c-.64-.216-1.012,0-1.159.32s.173.718.908,1.315c1.012.8,1.358,1.583,1.012,2.5-.355,1.09-1.5,1.73-3.295,1.176a4.48,4.48,0,0,1-1.73-1.012Z" transform="translate(-18.003 -11.992)"/>
    <path id="Path_39" data-name="Path 39" d="M68.651,10.278,66.446,9.05l-.787,1.427,2.456,1.366-.605,1.116-3.84-2.127,3.338-6,3.7,2.05L70.1,8,67.743,6.7l-.692,1.245,2.214,1.228Z" transform="translate(-8.606 -0.652)"/>
    <path id="Path_40" data-name="Path 40" d="M84.83,28.248a3.961,3.961,0,0,0,.865,1.539c.493.519,1.012.579,1.289.277s.259-.7-.1-1.5c-.51-1.09-.571-2.024.156-2.767s2.171-.726,3.295.45a4.212,4.212,0,0,1,1.012,1.5l-1.142.614a3.269,3.269,0,0,0-.761-1.263c-.467-.484-.908-.51-1.168-.259s-.19.718.182,1.591c.519,1.185.458,2.024-.242,2.707s-2.153.865-3.459-.519a4.488,4.488,0,0,1-1.012-1.73Z" transform="translate(-20.305 -13.536)"/>
    <path id="Path_41" data-name="Path 41" d="M82.943,25.149l-1.375-2.119-1.366.882,1.522,2.378-1.072.683L78.29,23.29l5.777-3.71,2.283,3.572-1.072.683-1.436-2.257-1.211.77L84,24.475Z" transform="translate(-10.583 -2.645)"/>
    <path id="Path_42" data-name="Path 42" d="M98.785,39.17a13.708,13.708,0,0,1,.865,1.877,3.5,3.5,0,0,1,.311,2.179,1.73,1.73,0,0,1-1.116,1.159,1.825,1.825,0,0,1-2.024-.51h0a1.73,1.73,0,0,1-.865,1.375,19.894,19.894,0,0,0-1.591,1.237l-.571-1.531A8.881,8.881,0,0,1,95.1,43.944c.726-.484.865-.865.614-1.436l-.173-.432-2.508,1.012-.553-1.47Zm-2.179,2.508.242.528c.285.718.813,1.012,1.366.778a.993.993,0,0,0,.476-1.41,3.84,3.84,0,0,0-.3-.64Z" transform="translate(-21.486 -15.412)"/>
    <path id="Path_43" data-name="Path 43" d="M95.48,50.973l6.443-3.243.259,1.73L99.45,50.74c-.77.355-1.513.692-2.326,1.012h0a20.159,20.159,0,0,1,2.491.234l3.036.406.251,1.635-7.143-1.219Z" transform="translate(-21.892 -16.569)"/>
    <rect id="Rectangle_4" data-name="Rectangle 4" width="1.557" height="6.867" transform="translate(74.136 41.411) rotate(-89.79)"/>
    <path id="Path_44" data-name="Path 44" d="M95.176,67.808a4.385,4.385,0,0,1,0-1.79,3.269,3.269,0,0,1,4.056-2.923,3.5,3.5,0,0,1,2.914,4.324,4.056,4.056,0,0,1-.605,1.609l-1.159-.528a3.347,3.347,0,0,0,.484-1.237,2.257,2.257,0,0,0-4.437-.8,3.866,3.866,0,0,0,0,1.315Z" transform="translate(-21.838 -18.632)"/>
    <path id="Path_45" data-name="Path 45" d="M84.751,63.939l.943-2.352-1.513-.605L83.125,63.6l-1.185-.476,1.635-4.056,6.374,2.551-1.574,3.926-1.185-.476.995-2.482-1.315-.536-.943,2.352Z" transform="translate(-11.076 -7.983)"/>
    <path id="Path_46" data-name="Path 46" d="M24.84,86.654c-1.937,1.5-3.8,1.012-4.783-.216s-.778-3.209.925-4.54,3.727-1.159,4.783.225.77,3.209-.934,4.532m-3.459-4.264c-1.176.908-1.816,2.491-.865,3.727s2.594,1.012,3.9.061c1.09-.865,1.885-2.422.865-3.727s-2.7-1.012-3.909-.061" transform="translate(-11.617 -21.064)"/>
    <path id="Path_47" data-name="Path 47" d="M19.38,74.93l2.594,2.231-.346.406-2.136-1.851-1.738,2L19.7,79.4l-.337.4-1.946-1.7L15.3,80.551l-.458-.389Z" transform="translate(-2.006 -10.127)"/>
    <path id="Path_48" data-name="Path 48" d="M35.31,98.925l2.88-6.3.476.216.761,4.843c.156,1.012.173,1.358.251,2.024h0c.32-.77.605-1.418,1.012-2.413l1.323-2.906.545.251-2.88,6.3-.476-.216-.7-4.7c-.13-.943-.2-1.513-.277-2.153h0c-.225.51-.605,1.427-1.081,2.473l-1.237,2.871Z" transform="translate(-13.759 -22.637)"/>
    <path id="Path_49" data-name="Path 49" d="M38.168,88.426l-2.577-.605-.64,2.733,2.914.666-.121.519-3.494-.813,1.557-6.746,3.338.77-.112.519-2.759-.64-.579,2.482,2.594.6Z" transform="translate(-4.63 -11.377)"/>
    <path id="Path_50" data-name="Path 50" d="M53.37,104.141l-1.6-6.971h.605l.865,3.926c.216.865.311,1.418.45,2.024h0c.156-.588.277-1.116.553-2.024l1.185-3.874h.778l.865,3.9c.19.865.285,1.418.4,2.024h0c.173-.631.3-1.133.588-2.024l1.193-3.866h.614l-2.127,6.988H57.21l-.917-4.056c-.242-1.012-.4-1.73-.484-2.37h0a18.343,18.343,0,0,1-.666,2.326l-1.306,4Z" transform="translate(-15.983 -23.252)"/>
    <path id="Path_51" data-name="Path 51" d="M70.351,102.173l-.865-2.819L66.2,96.24l.64-.2,1.73,1.643c.432.432.709.718,1.012,1.012h0c.052-.346.13-.865.259-1.444l.51-2.283.64-.2-1.012,4.437.865,2.854Z" transform="translate(-17.934 -22.927)"/>
    <path id="Path_52" data-name="Path 52" d="M79.922,94.105c1.176,2.145.432,3.918-1.012,4.679a3.184,3.184,0,0,1-4.324-1.635c-1.021-1.894-.545-3.857,1.012-4.687s3.295-.251,4.324,1.635M75.165,96.83c.709,1.306,2.171,2.188,3.546,1.436s1.462-2.413.675-3.84c-.666-1.219-2.084-2.24-3.537-1.444s-1.418,2.5-.675,3.848" transform="translate(-18.995 -22.565)"/>
    <path id="Path_53" data-name="Path 53" d="M80.73,89.352a7.688,7.688,0,0,1,1.012-1.072,2.543,2.543,0,0,1,1.816-.77,1.73,1.73,0,0,1,1.168.631,1.842,1.842,0,0,1,.13,2.257h0a1.73,1.73,0,0,1,1.73.432,9.219,9.219,0,0,0,1.6,1.09l-.476.406a10.379,10.379,0,0,1-1.427-1.012,1.479,1.479,0,0,0-2.067,0l-.649.545,2.024,2.378-.458.389Zm2.525,2.041.752-.64a1.444,1.444,0,0,0,.32-2.179c-.649-.761-1.4-.614-2.231.078a3.459,3.459,0,0,0-.614.64Z" transform="translate(-19.898 -21.946)"/>
    <path id="Path_54" data-name="Path 54" d="M86.08,84.1l.372-.467,2.525,2.024h0c-.069-.3-.156-.692-.216-1.072l-.536-3.157.458-.553.614,3.9,4.912.277-.45.553-4.29-.294.138.865,2.231,1.816-.372.467Z" transform="translate(-20.621 -21.048)"/>
    <path id="Path_55" data-name="Path 55" d="M39.24,69.378,28.43,62.8V44.73L39.3,51.294Zm-4.419-8.346,2.767-8.216H35.617L34.6,56.327c-.285.943-.536,1.911-.744,2.9h0c-.19-1.012-.458-1.963-.726-2.94l-1.012-3.459H30.1l2.594,8.216ZM39.8,69.378,50.7,62.8V44.73L39.8,51.294Zm2.024-8.346V52.816H44l1.73,3.036a23.9,23.9,0,0,1,1.358,2.819h0a30.527,30.527,0,0,1-.164-3.459V52.79h1.8v8.216H46.661l-1.73-3.174a30.582,30.582,0,0,1-1.427-2.9h0c0,1.081.069,2.249.069,3.589V61ZM62.1,51.294,51.236,44.73V62.8l10.871,6.573Zm-7.93,7.783a4.748,4.748,0,0,0,2.024.519c.865,0,1.306-.355,1.306-.865s-.4-.8-1.375-1.159c-1.358-.45-2.205-1.237-2.205-2.473,0-1.4,1.168-2.473,3.113-2.473a5.068,5.068,0,0,1,2.093.45l-.415,1.5a3.9,3.9,0,0,0-1.73-.4c-.8,0-1.193.363-1.193.787s.467.761,1.522,1.159c1.444.536,2.136,1.3,2.136,2.447,0,1.375-1.012,2.594-3.312,2.594a5.345,5.345,0,0,1-2.326-.519Zm10.525,1.911V52.773h2.171l1.73,3.036a23.825,23.825,0,0,1,1.4,2.785h0a30.643,30.643,0,0,1-.164-3.459V52.816h1.73v8.216H69.57l-1.73-3.174a30.815,30.815,0,0,1-1.427-2.9h0c0,1.081.069,2.249.069,3.589v2.473Zm11.424,0V57.936l-2.594-5.068h2.1l.865,1.972c.251.6.424,1.012.64,1.574h0c.182-.519.372-1.012.614-1.574l.865-1.972h2.084L77.95,57.936v3.183Z" transform="translate(-12.829 -16.163)" fill="#005da9"/>
    <rect id="Rectangle_5" data-name="Rectangle 5" width="0.45" height="51.89" transform="translate(89.077 14.271)" fill="#231f20"/>
    <path id="Path_56" data-name="Path 56" d="M123.3,60.156V59.015c3.373-.173,3.615-.432,3.615-2.5V41.32H123.3V40.2l1.444-.277c3.036-.536,4.627-1.488,6.149-3.779h1.012V56.463c0,2.024.337,2.3,3.459,2.5v1.185Z" transform="translate(-25.652 -15.002)" fill="#005da9"/>
    <path id="Path_57" data-name="Path 57" d="M150.894,56.028c2.534,0,3.459-.2,5.137-3.416h.943l-1.012,7.533H140.11v-.908l6.209-6.279c3.572-3.615,4.895-5.907,4.895-8.942,0-2.664-1.488-4.428-4.324-4.428A6.521,6.521,0,0,0,141.7,42.26l-.865-.536c1.548-2.906,3.952-5.6,8.3-5.6,4.186,0,6.746,2.361,6.746,6.175,0,5.189-6.408,9.651-11.139,13.733Z" transform="translate(-27.925 -15)" fill="#005da9"/>
    <path id="Path_58" data-name="Path 58" d="M167.767,40.608l-.631,3.883c7.5,0,12.22,2.43,12.22,8.207,0,4.722-3.511,7.628-8.3,7.628-5.068,0-7.783-2.153-7.783-4.731a3.036,3.036,0,0,1,1.591-2.664h2.863a7.783,7.783,0,0,0-.277,1.955c0,2.594,1.219,4.255,3.779,4.255s4.255-1.73,4.255-4.488c0-3.978-3.572-6.011-10.378-6.054l2.024-12.315h8.51c1.185,0,1.488-.1,2.2-1.444h1.012l-.908,5.742Z" transform="translate(-31.055 -14.827)" fill="#005da9"/>
    <path id="Path_59" data-name="Path 59" d="M127.89,78.135c0,.657.259.692,1.012.787v.415h-3.84v-.415c.813-.1,1.072-.13,1.072-.787V76.111L123.8,71.865a.787.787,0,0,0-.709-.45V71h3.6v.415c-.726,0-.934.121-.934.424A1.366,1.366,0,0,0,126,72.5l1.66,2.906,1.548-2.88a1.894,1.894,0,0,0,.251-.675c0-.311-.259-.406-.943-.424V71h2.4v.415a.813.813,0,0,0-.709.45l-2.326,4.272Z" transform="translate(-25.624 -19.714)" fill="#005da9"/>
    <path id="Path_60" data-name="Path 60" d="M136.043,78.922c.865-.1.951-.164.951-.822V72.2c0-.657-.121-.726-.951-.822V71h6.564l.061,2.145h-.346c-.588-1.306-.934-1.669-1.885-1.669h-1.669V74.8h1.557c.528,0,.709-.337.822-1.107h.415v2.716h-.415c-.121-.761-.294-1.081-.822-1.081h-1.557V78.1c0,.649.32.813,1.012.813h.744c1.012,0,1.306-.484,2.11-1.911h.415l-.372,2.387H136Z" transform="translate(-27.369 -19.714)" fill="#005da9"/>
    <path id="Path_61" data-name="Path 61" d="M153.275,76.575h-3.209l-.519,1.323a1.289,1.289,0,0,0-.112.467c0,.389.3.519,1.012.536v.415H148V78.91a.683.683,0,0,0,.709-.45l2.594-6.685-.372-.865H152.8l3.036,7.585c.13.32.389.4.709.45v.415h-3.589v-.415c.709,0,1.012-.138,1.012-.528a1.288,1.288,0,0,0-.112-.467Zm-3.036-.519h2.819l-1.436-3.6Z" transform="translate(-28.991 -19.702)" fill="#005da9"/>
    <path id="Path_62" data-name="Path 62" d="M164.576,78.1c0,.657.121.726.951.822v.415H161.86v-.415c.865-.1.951-.164.951-.822V72.2c0-.657-.121-.726-.951-.822V71h3.805c2.024,0,3.131.934,3.131,2.326a2.352,2.352,0,0,1-1.946,2.205l1.773,2.387c.536.726.865,1.012,1.462,1.012v.415h-2.266a4.436,4.436,0,0,1-1.012-1.176l-1.652-2.413h-.614Zm0-6.659v3.805h.579a1.9,1.9,0,1,0,0-3.805Z" transform="translate(-30.864 -19.714)" fill="#005da9"/>
    <path id="Path_63" data-name="Path 63" d="M175.252,78.646l-.112-2.024h.51c.285,1.418,1.012,2.352,2.257,2.352,1.012,0,1.583-.528,1.583-1.349s-.553-1.263-1.955-1.73-2.318-1.133-2.318-2.543a2.508,2.508,0,0,1,2.491-2.534h.3a4.324,4.324,0,0,1,2.482.709v1.782h-.45c-.225-1.263-.908-2.024-2.024-2.024a1.237,1.237,0,0,0-1.358,1.263c0,.865.458,1.185,1.73,1.652,1.557.6,2.594,1.219,2.594,2.7,0,1.669-1.375,2.534-3.036,2.534A4.324,4.324,0,0,1,175.252,78.646Z" transform="translate(-32.66 -19.69)" fill="#005da9"/>
    <path id="Path_64" data-name="Path 64" d="M209.6,50.7,205,36.45h2.837l1.937,6.529c.545,1.79,1.012,3.459,1.4,5.189h0c.389-1.73.908-3.459,1.462-5.189l2.024-6.512h2.767L212.507,50.72Z" transform="translate(-36.696 -15.044)" fill="#231f20"/>
    <path id="Path_65" data-name="Path 65" d="M223.333,37.468a1.462,1.462,0,1,1-1.5-1.418h0a1.384,1.384,0,0,1,1.453,1.315A.305.305,0,0,1,223.333,37.468Zm-2.767,13.171V40.331h2.594V50.648Z" transform="translate(-38.779 -14.99)" fill="#231f20"/>
    <path id="Path_66" data-name="Path 66" d="M226.634,48.866a5.639,5.639,0,0,0,2.594.761c1.142,0,1.652-.484,1.652-1.168s-.424-1.012-1.73-1.5c-2.024-.675-2.837-1.73-2.837-3.036,0-1.825,1.5-3.209,3.892-3.209a5.933,5.933,0,0,1,2.741.605l-.528,1.825a4.558,4.558,0,0,0-2.179-.588c-.934,0-1.436.467-1.436,1.107s.484.951,1.79,1.436c1.885.657,2.724,1.609,2.742,3.131,0,1.885-1.462,3.234-4.186,3.234a6.642,6.642,0,0,1-3.131-.718Z" transform="translate(-39.537 -15.621)" fill="#231f20"/>
    <path id="Path_67" data-name="Path 67" d="M239.793,37.468a1.462,1.462,0,1,1-1.5-1.418h0a1.384,1.384,0,0,1,1.453,1.315A.305.305,0,0,1,239.793,37.468Zm-2.767,13.171V40.331h2.594V50.648Z" transform="translate(-41.004 -14.99)" fill="#231f20"/>
    <path id="Path_68" data-name="Path 68" d="M246.113,38v2.646h2.473v1.911h-2.473v4.558c0,1.263.337,1.9,1.323,1.9a3.381,3.381,0,0,0,1.012-.1v1.972a5.717,5.717,0,0,1-1.885.277,2.975,2.975,0,0,1-2.24-.865,4.056,4.056,0,0,1-.822-2.9V42.558H242.04V40.594H243.5V38.683Z" transform="translate(-41.703 -15.254)" fill="#231f20"/>
    <path id="Path_69" data-name="Path 69" d="M254.623,37.468a1.462,1.462,0,1,1-1.5-1.418h0a1.384,1.384,0,0,1,1.453,1.315A.305.305,0,0,1,254.623,37.468Zm-2.767,13.171V40.331h2.595V50.648Z" transform="translate(-43.008 -14.99)" fill="#231f20"/>
    <path id="Path_70" data-name="Path 70" d="M257.4,44.065c0-1.185,0-2.179-.078-3.036h2.257l.13,1.539h.061a3.779,3.779,0,0,1,3.3-1.73c1.79,0,3.658,1.168,3.658,4.419v6.054h-2.594V45.475c0-1.479-.545-2.594-1.963-2.594a2.188,2.188,0,0,0-2.024,1.522,2.43,2.43,0,0,0-.121.822v6.054h-2.594Z" transform="translate(-43.768 -15.637)" fill="#231f20"/>
    <path id="Path_71" data-name="Path 71" d="M280.617,49.771c0,2.153-.45,3.7-1.522,4.67a5.889,5.889,0,0,1-3.97,1.219,7.524,7.524,0,0,1-3.6-.822l.571-1.963a6.218,6.218,0,0,0,3.036.778c1.73,0,2.958-.865,2.958-3.113v-.865h0a3.459,3.459,0,0,1-3.036,1.522c-2.594,0-4.376-2.119-4.376-5.068,0-3.381,2.2-5.431,4.67-5.431a3.217,3.217,0,0,1,2.975,1.609h0l.1-1.375h2.257c0,.7-.078,1.539-.078,2.958Zm-2.594-4.67a2.43,2.43,0,0,0-.069-.657,2.153,2.153,0,0,0-2.119-1.669c-1.462,0-2.534,1.263-2.534,3.364,0,1.73.865,3.174,2.508,3.174a2.223,2.223,0,0,0,2.136-1.617,3.139,3.139,0,0,0,.1-.908Z" transform="translate(-45.574 -15.618)" fill="#231f20"/>
    <path id="Path_72" data-name="Path 72" d="M290.54,50.7V36.45h2.992l3.676,6.054a42.248,42.248,0,0,1,2.378,4.8h0a58.293,58.293,0,0,1-.234-5.915V36.45h2.5V50.7h-2.707l-3.719-6.279a49.018,49.018,0,0,1-2.482-4.9h-.078c.1,1.842.156,3.719.156,6.054v5.068Z" transform="translate(-48.258 -15.044)" fill="#231f20"/>
    <path id="Path_73" data-name="Path 73" d="M316.188,48.23c0,1.228,0,2.24.078,3.036h-2.257l-.1-1.539h-.061a3.771,3.771,0,0,1-3.321,1.842c-1.868,0-3.572-1.124-3.572-4.488V41h2.594v5.6c0,1.73.545,2.819,1.929,2.819a2.119,2.119,0,0,0,2.024-1.4,1.885,1.885,0,0,0,.156-.8V41h2.594Z" transform="translate(-50.478 -15.659)" fill="#231f20"/>
    <path id="Path_74" data-name="Path 74" d="M320.868,44.3c0-1.4,0-2.413-.078-3.321h2.24l.1,1.946h.078a3.036,3.036,0,0,1,2.837-2.179,2.715,2.715,0,0,1,.614.061v2.43a4.151,4.151,0,0,0-.778-.061,2.292,2.292,0,0,0-2.318,1.963,4.487,4.487,0,0,0-.061.778v5.345h-2.594Z" transform="translate(-52.347 -15.625)" fill="#231f20"/>
    <path id="Path_75" data-name="Path 75" d="M329.344,48.866a5.639,5.639,0,0,0,2.594.761c1.142,0,1.652-.484,1.652-1.168s-.424-1.012-1.73-1.5c-2.024-.675-2.837-1.73-2.837-3.036,0-1.825,1.5-3.209,3.892-3.209a5.933,5.933,0,0,1,2.742.605l-.528,1.825a4.558,4.558,0,0,0-2.179-.588c-.934,0-1.436.467-1.436,1.107s.484.951,1.79,1.436c1.885.657,2.724,1.609,2.742,3.131,0,1.885-1.462,3.234-4.186,3.234a6.642,6.642,0,0,1-3.131-.718Z" transform="translate(-53.421 -15.621)" fill="#231f20"/>
    <path id="Path_76" data-name="Path 76" d="M341.511,46.849c.061,1.868,1.5,2.664,3.174,2.664a8.285,8.285,0,0,0,2.854-.467l.389,1.73a9.237,9.237,0,0,1-3.6.657c-3.347,0-5.31-2.024-5.31-5.189,0-2.854,1.73-5.544,5.068-5.544s4.437,2.742,4.437,5.016a6.488,6.488,0,0,1-.078,1.107Zm4.532-1.816a2.223,2.223,0,0,0-1.894-2.5h-.242a2.543,2.543,0,0,0-2.387,2.508Z" transform="translate(-54.811 -15.619)" fill="#231f20"/>
    <path id="Path_77" data-name="Path 77" d="M357.466,47.836a7.091,7.091,0,0,0,3.459.908c1.652,0,2.595-.778,2.595-1.946s-.718-1.73-2.508-2.37c-2.37-.865-3.866-2.093-3.866-4.143,0-2.352,1.946-4.056,5.068-4.056a7.429,7.429,0,0,1,3.407.718l-.614,2.093a6.21,6.21,0,0,0-2.854-.675c-1.652,0-2.352.865-2.352,1.73,0,1.107.822,1.609,2.724,2.352,2.473.934,3.658,2.179,3.658,4.22,0,2.309-1.73,4.324-5.388,4.324a8.216,8.216,0,0,1-3.866-.908Z" transform="translate(-57.232 -15.014)" fill="#231f20"/>
    <path id="Path_78" data-name="Path 78" d="M372.011,46.849c.061,1.868,1.5,2.664,3.174,2.664a8.285,8.285,0,0,0,2.854-.467l.389,1.73a9.245,9.245,0,0,1-3.6.657c-3.347,0-5.31-2.024-5.31-5.189,0-2.854,1.73-5.544,5.068-5.544s4.437,2.742,4.437,5.016a6.491,6.491,0,0,1-.078,1.107Zm4.532-1.816a2.223,2.223,0,0,0-1.894-2.5h-.285a2.543,2.543,0,0,0-2.387,2.508Z" transform="translate(-58.934 -15.619)" fill="#231f20"/>
    <path id="Path_79" data-name="Path 79" d="M382.888,44.3c0-1.4,0-2.413-.078-3.321h2.24l.1,1.946h.061a3.036,3.036,0,0,1,2.837-2.179,2.715,2.715,0,0,1,.614.061v2.43a4.151,4.151,0,0,0-.778-.061,2.292,2.292,0,0,0-2.318,1.963,4.487,4.487,0,0,0-.061.778v5.345h-2.594Z" transform="translate(-60.731 -15.625)" fill="#231f20"/>
    <path id="Path_80" data-name="Path 80" d="M393.565,41l1.669,5.189c.294.908.51,1.73.7,2.594h.061c.19-.865.424-1.652.7-2.594L398.347,41h2.724l-3.926,10.3h-2.594L390.78,41Z" transform="translate(-61.808 -15.659)" fill="#231f20"/>
    <path id="Path_81" data-name="Path 81" d="M407.293,37.468a1.462,1.462,0,1,1-1.513-1.418h0a1.384,1.384,0,0,1,1.453,1.315S407.293,37.433,407.293,37.468Zm-2.767,13.171V40.331h2.594V50.648Z" transform="translate(-63.645 -14.99)" fill="#231f20"/>
    <path id="Path_82" data-name="Path 82" d="M418.266,50.961a7.533,7.533,0,0,1-2.914.528A4.964,4.964,0,0,1,410,46.213a5.344,5.344,0,0,1,5.734-5.483,6.919,6.919,0,0,1,2.508.467l-.458,1.972a4.272,4.272,0,0,0-1.963-.406,3.036,3.036,0,0,0-3.148,3.347,3.036,3.036,0,0,0,3.148,3.321,5.189,5.189,0,0,0,2.024-.406Z" transform="translate(-64.404 -15.623)" fill="#231f20"/>
    <path id="Path_83" data-name="Path 83" d="M423.291,46.849c.061,1.868,1.5,2.664,3.174,2.664a8.285,8.285,0,0,0,2.854-.467l.389,1.73a9.236,9.236,0,0,1-3.6.657c-3.347,0-5.31-2.024-5.31-5.189,0-2.854,1.73-5.544,5.068-5.544s4.437,2.742,4.437,5.016a6.494,6.494,0,0,1-.078,1.107Zm4.532-1.816a2.223,2.223,0,0,0-1.9-2.491h-.233A2.543,2.543,0,0,0,423.3,45.05Z" transform="translate(-65.866 -15.619)" fill="#231f20"/>
    <path id="Path_84" data-name="Path 84" d="M216.121,73.1a5.068,5.068,0,0,1-5.284,5.483,4.973,4.973,0,0,1-5.189-5.31,5.068,5.068,0,0,1,5.327-5.457,4.947,4.947,0,0,1,5.111,5.284Zm-7.783.1c0,2.024,1.012,3.459,2.594,3.459s2.508-1.427,2.508-3.511c0-1.609-.718-3.459-2.491-3.459s-2.594,1.79-2.594,3.5Z" transform="translate(-36.781 -19.283)" fill="#231f20"/>
    <path id="Path_85" data-name="Path 85" d="M220.292,77.613V69.267H218.9V67.313h1.4v-.45a4.808,4.808,0,0,1,1.28-3.511,3.9,3.9,0,0,1,2.681-1.012,5.405,5.405,0,0,1,1.652.251l-.173,2.024a3.148,3.148,0,0,0-1.124-.19c-1.289,0-1.73,1.072-1.73,2.352V67.3h2.24V69.25H222.9v8.363Z" transform="translate(-38.575 -18.544)" fill="#231f20"/>
    <path id="Path_86" data-name="Path 86" d="M233.17,77.772V63.52h2.975l3.676,6.054a42.475,42.475,0,0,1,2.43,4.783h0a58.31,58.31,0,0,1-.234-5.915V63.52H244.5V77.772h-2.707l-3.719-6.279a49.022,49.022,0,0,1-2.534-4.9h-.078c.1,1.842.156,3.719.156,6.054v5.128Z" transform="translate(-40.504 -18.703)" fill="#231f20"/>
    <path id="Path_87" data-name="Path 87" d="M251.339,73.933c.061,1.825,1.5,2.69,3.165,2.69a8.285,8.285,0,0,0,2.854-.467l.389,1.73a9.236,9.236,0,0,1-3.6.657c-3.347,0-5.31-2.024-5.31-5.189,0-2.854,1.73-5.544,5.068-5.544s4.437,2.742,4.437,5.016a6.488,6.488,0,0,1-.078,1.107Zm4.558-1.807a2.223,2.223,0,0,0-1.894-2.5h-.251a2.543,2.543,0,0,0-2.387,2.508Z" transform="translate(-42.622 -19.283)" fill="#231f20"/>
    <path id="Path_88" data-name="Path 88" d="M263.594,68.09l1.012,4.67c.251,1.107.484,2.223.675,3.347h0c.216-1.124.545-2.257.822-3.321l1.444-4.687h2.1l1.289,4.566c.311,1.2.588,2.326.822,3.459h0c.156-1.124.406-2.24.675-3.459l1.176-4.566H276.2L272.926,78.39h-2.413L269.285,74.2a31.687,31.687,0,0,1-.778-3.3h0a31.826,31.826,0,0,1-.778,3.3l-1.263,4.186h-2.439L261,68.09Z" transform="translate(-44.265 -19.321)" fill="#231f20"/>
    <path id="Path_89" data-name="Path 89" d="M287.626,77.774V71.832l-4.506-8.3H286.1l1.73,3.658c.484,1.012.865,1.868,1.245,2.837h0c.337-.908.744-1.79,1.228-2.837l1.73-3.658h2.94l-4.739,8.242v6Z" transform="translate(-47.255 -18.705)" fill="#231f20"/>
    <path id="Path_90" data-name="Path 90" d="M305.907,73.1a5.068,5.068,0,0,1-5.284,5.483,4.973,4.973,0,0,1-5.146-5.31,5.068,5.068,0,0,1,5.327-5.457,4.947,4.947,0,0,1,5.1,5.284Zm-7.783.1c0,2.024,1.012,3.459,2.594,3.459s2.508-1.436,2.508-3.537c0-1.609-.718-3.459-2.491-3.459s-2.594,1.816-2.594,3.528Z" transform="translate(-48.924 -19.283)" fill="#231f20"/>
    <path id="Path_91" data-name="Path 91" d="M309.988,71.439c0-1.4,0-2.413-.078-3.321h2.24l.1,1.946h.061a3.036,3.036,0,0,1,2.863-2.214,2.716,2.716,0,0,1,.614.061v2.43a4.2,4.2,0,0,0-.778-.061,2.292,2.292,0,0,0-2.326,1.963,4.487,4.487,0,0,0-.06.778v5.336h-2.594Z" transform="translate(-50.877 -19.288)" fill="#231f20"/>
    <path id="Path_92" data-name="Path 92" d="M321.3,71.87h0c.251-.406.545-.865.8-1.2l2.508-3.321h3.131l-3.814,4.246,4.324,6.054H325.1L322.139,73.1l-.865,1.012v3.537H318.68V62.59h2.594Z" transform="translate(-52.062 -18.578)" fill="#231f20"/>
  </g>
</svg>
